<svg version="1.2" xmlns="http://www.w3.org/2000/svg" viewBox="0 0 1500 1300" width="1500" height="1300">
	<style>
		.s0 { fill: #fff387 } 
		.s1 { fill: #ffea35 } 
		.s2 { fill: #febc3a } 
		.s3 { fill: #e28810 } 
		.s4 { fill: #c6650d } 
	</style>
	<g>
		<path class="s0" d="m668.64 1259.26c-3.27-1.49-19.31-3.27-35.35-4.46-16.05-1.19-30.9-2.97-32.68-4.16-1.79-1.19-11.29-3.56-21.1-5.64-27.33-5.05-47.24-10.4-50.51-12.78-1.48-1.19-7.72-3.27-13.37-4.45-5.64-1.19-11.58-3.27-13.37-4.46-1.48-1.19-6.23-3.27-10.39-4.46-7.13-2.08-41.6-16.93-50.51-21.98-2.38-1.19-13.67-7.43-25.26-13.67-11.29-5.94-21.39-12.18-22.28-13.37-0.89-1.19-4.45-2.97-8.02-4.16-3.86-1.19-6.83-3.56-6.83-5.05 0-1.49-2.08-2.67-4.46-2.67-2.67 0-5.35-2.08-6.24-4.46-1.19-2.38-3.56-4.46-5.94-4.46-2.38 0-6.54-2.67-9.21-5.94-2.97-3.27-6.54-5.94-8.02-5.94-1.49 0-5.35-2.97-8.92-6.83-3.26-3.57-10.1-9.51-15.15-13.37-13.67-10.4-57.04-53.48-69.22-68.64-6.24-7.42-14.26-16.93-18.42-21.39-11.89-12.77-17.83-21.39-17.83-25.55 0-2.08-1.19-3.86-2.67-3.86-2.38 0-15.16-18.42-25.85-37.14-14.56-25.85-22.88-42.78-32.39-65.66-6.24-14.56-13.07-30.6-15.15-35.95-2.38-5.05-4.16-11.88-4.16-14.85 0-2.97-1.19-6.84-2.67-8.32-1.49-1.78-5.65-14.86-8.92-29.71-3.56-14.56-7.72-30.9-9.21-35.95-8.91-27.93-15.15-152.12-9.21-180.94 1.49-8.02 4.16-24.95 5.65-37.14 1.78-12.18 5.05-30.3 7.43-40.1 2.67-9.81 6.24-24.37 8.02-32.69 2.08-8.02 4.75-16.04 5.94-17.82 1.19-1.49 2.97-8.02 4.16-13.97 1.19-6.24 3.27-11.29 4.75-11.29 1.79 0 2.97-2.08 2.97-4.75 0-4.75 3.57-13.96 15.16-38.62 2.97-6.84 5.64-13.67 5.64-15.75 0-1.78 1.19-3.27 2.38-3.27 1.19 0 3.86-3.56 5.64-8.02 9.81-22.88 43.38-73.98 61.21-93.29 4.45-4.75 8.02-9.81 8.02-11.29 0-4.16 80.51-83.49 84.67-83.49 0.89 0 4.76-3.26 8.62-7.42 3.86-4.16 8.32-7.43 9.8-7.43 1.49 0 5.35-2.68 8.32-5.94 2.97-3.27 7.13-5.95 8.92-5.95 2.08 0 4.45-2.08 5.64-4.45 0.89-2.38 3.57-4.46 6.24-4.46 2.38 0 4.46-1.19 4.46-2.97 0-1.49 3.26-3.57 7.42-4.75 4.16-0.9 7.43-2.68 7.43-3.87 0-0.89 6.24-5.34 14.26-9.21 7.73-4.16 14.56-8.02 15.45-8.91 3.86-3.86 27.04-14.85 30.9-14.85 2.67 0 4.75-0.9 4.75-2.38 0-1.19 7.14-4.76 15.75-7.73 8.32-2.97 21.1-8.02 27.93-10.99 6.83-2.97 14.85-5.64 17.83-5.64 3.26 0 6.83-1.19 8.61-2.68 1.49-1.48 9.51-4.16 17.53-6.24 8.32-1.78 23.47-5.35 34.17-8.02 10.69-2.38 30-5.64 43.08-7.13 13.07-1.78 32.38-4.46 43.08-6.24 36.54-5.94 204.7 0.89 233.22 9.21 4.76 1.49 15.75 4.16 23.77 5.65 28.23 5.64 44.57 10.1 47.24 12.77 1.78 1.49 5.65 2.68 8.91 2.68 3.57 0 10.11 2.08 14.86 4.45 4.46 2.38 9.51 4.46 10.99 4.46 3.87 0 68.34 29.41 71.01 32.38 0.89 0.89 7.73 5.05 15.75 9.21 7.72 3.87 13.96 8.32 13.96 9.21 0 1.19 2.97 2.68 6.83 3.87 3.87 0.89 10.7 5.05 15.16 9.21 4.45 4.16 9.21 7.42 10.4 7.42 1.18 0 5.64 2.68 9.5 5.95 3.86 3.26 8.62 6.83 10.1 8.02 31.2 23.77 76.95 68.03 98.05 94.48 6.53 8.02 13.37 16.34 14.85 18.42 6.84 8.32 9.81 12.48 24.66 34.46 8.32 12.78 15.45 24.36 15.45 25.85 0 1.78 1.19 2.97 2.38 2.97 1.48 0 5.64 7.43 9.8 16.34 3.87 8.91 8.03 16.34 9.21 16.34 0.9 0 2.68 3.86 3.87 8.91 1.18 4.76 3.26 8.92 4.75 8.92 1.49 0 2.67 1.78 2.67 3.86 0.3 1.78 2.68 8.91 5.95 15.45 3.26 6.54 5.64 13.96 5.94 16.64 0 2.37 1.19 5.64 2.67 7.43 1.19 1.48 5.35 12.77 9.21 24.95 3.57 12.18 7.73 24.96 9.21 28.23 2.97 7.13 5.94 22.87 17.83 96.56 5.94 37.43-1.19 179.74-9.51 188.66-1.48 1.48-2.67 6.24-2.67 10.99 0 4.46-1.79 13.96-3.86 20.8-2.38 7.13-7.14 22.87-11 35.05-3.86 12.19-8.02 23.48-9.21 25.26-1.48 1.48-2.67 4.75-2.67 7.43-0.3 2.37-2.68 9.8-5.94 16.34-3.27 6.53-5.65 13.66-5.95 15.74 0 1.79-1.18 3.57-2.67 3.57-1.49 0-3.57 3.56-4.75 8.02-0.9 4.46-2.97 8.91-3.87 9.8-1.18 0.9-5.34 8.03-9.5 15.75-10.1 19.91-36.84 61.8-46.05 72.49-1.49 2.08-4.16 5.35-5.95 7.43-19.01 24.66-31.49 38.63-60.61 67.15-18.71 18.12-35.35 33.27-36.54 33.27-1.48 0-5.64 2.97-9.21 6.84-8.32 8.32-24.66 19.9-28.52 19.9-1.49 0-3.27 1.79-4.16 3.86-0.6 2.08-6.54 6.24-12.78 9.51-6.53 3.27-12.18 6.84-13.07 7.73-1.48 1.78-29.12 17.23-49.02 27.33-9.81 5.05-23.18 10.99-41.6 18.42-6.53 2.67-13.96 5.94-16.34 7.13-2.67 1.49-9.21 3.57-14.85 4.76-5.65 1.18-11.59 3.26-13.37 4.45-8.62 6.54-78.73 19.91-139.64 26.44-33.87 3.87-154.49 4.16-163.41 0.6z"/>
	</g>
	<g>
		<path class="s1" d="m518.61 1225.39c-2.38-0.89-11-4.16-19.32-6.54-13.66-4.45-90.91-41.3-98.04-46.94-1.49-1.19-11.59-7.73-21.99-14.86-26.74-17.52-27.03-17.52-35.35-24.95-4.16-3.86-8.62-6.84-9.81-6.84-5.34 0-2.37-8.02 4.16-11.58 3.57-1.79 10.7-5.94 15.45-9.21 5.05-3.27 11.89-7.43 15.75-9.21 3.56-2.08 6.54-4.76 6.54-6.24 0-1.19 1.78-2.38 4.16-2.38 2.37 0 4.75-0.89 5.34-2.08 1.49-3.56 19.61-15.75 23.18-15.75 1.48 0 2.97-1.18 2.97-2.37 0-1.49 2.97-4.16 6.83-6.24 3.57-1.78 9.81-5.35 13.67-7.43l6.83-4.16-8.32-5.64c-16.93-10.7-42.19-33.28-70.71-62.69l-21.09-21.69-49.62 32.98c-27.33 17.82-50.8 32.68-51.99 32.68-2.68 0-15.75-14.86-15.75-18.12 0-1.19 22.28-17.24 49.92-35.66 27.33-18.12 50.21-33.57 50.8-34.16 0.59-0.6-1.19-3.27-4.16-5.95-3.86-4.16-6.24-4.45-10.1-1.78-5.35 3.86-40.41 25.85-49.32 31.2-3.27 2.08-6.54 4.16-7.43 5.05-4.45 4.45-21.09 14.85-23.77 14.85-1.48 0-2.97 0.89-2.97 2.38 0 1.19-2.67 3.86-5.94 5.65-5.05 3.26-6.83 2.67-12.77-3.87-4.16-4.16-10.4-13.96-13.97-21.69-3.86-7.42-7.72-14.26-8.61-15.15-2.68-2.08-12.48-21.39-11.59-22.28 0.59-0.3 12.18-8.32 26.14-17.83 40.11-27.33 43.08-29.71 43.97-31.79 0.6-1.48 2.38-2.37 4.16-2.37 4.76 0 26.15-17.83 26.15-21.69 0-2.08-2.08-7.43-4.75-12.48-5.95-11.59-21.4-56.75-25.26-74.87-7.72-36.54-14.56-90.32-14.56-116.76v-14.86l-8.02 5.05c-8.91 5.65-64.17 45.76-73.09 53.18-2.67 2.38-5.94 4.16-6.83 4.16-0.89 0-7.72 4.76-15.45 10.7l-13.96 10.7-2.68-30.9c-2.97-34.47 1.19-107.56 8.32-146.48 5.65-30.6 11.59-55.55 13.97-59.42 1.18-1.48 2.97-7.42 4.16-12.77 1.18-5.35 3.86-13.37 6.24-17.83 2.37-4.45 4.15-10.99 4.15-14.56 0-3.86 1.19-6.83 2.68-6.83 1.48 0 3.56-3.56 4.46-7.72 2.07-7.13 27.63-61.21 35.35-73.98 11.29-18.72 35.06-54.67 40.41-60.91 3.26-4.16 7.13-8.62 8.32-10.4 24.36-30.9 70.11-78.73 75.46-78.73 1.49 0 2.67-1.19 2.67-2.38 0-1.19 6.84-7.72 15.45-13.96 8.32-6.54 16.64-13.07 18.42-14.86 2.08-1.48 5.65-4.16 8.03-5.94 17.82-11.59 43.37-28.52 46.05-30.3 8.02-5.95 38.62-21.69 65.06-33.28 11.59-5.35 23.18-10.69 25.85-12.18 2.97-1.78 7.43-2.97 10.1-2.97 2.68 0 8.91-1.78 13.97-4.16 15.74-7.13 53.18-17.23 92.69-24.36 26.15-5.05 172.03-10.4 218.37-8.02 53.18 2.37 106.66 13.36 166.38 33.87 27.93 9.5 109.04 49.02 123.3 60.01 1.78 1.19 17.83 13.07 35.65 26.44 41.3 30.6 98.94 87.65 119.14 118.25 4.46 6.54 9.21 11.88 10.4 11.88 1.48 0 2.67 2.08 2.67 4.46 0 2.38 1.19 4.46 2.68 4.46 1.48 0 4.16 4.16 6.24 8.91 2.08 5.05 4.75 8.91 5.94 8.91 1.19 0 2.97 2.38 4.16 5.35 0.89 2.67 4.45 9.21 7.72 13.96 2.97 5.06 7.73 13.08 10.1 17.83 2.38 5.05 6.84 13.67 10.11 19.31 2.97 5.65 8.02 15.75 10.99 22.29 2.67 6.53 7.13 15.44 9.21 19.9 2.38 4.16 4.16 9.21 4.16 11.29 0 2.08 1.78 7.73 3.86 12.78 14.86 34.76 30.3 104.28 33.28 150.63 1.18 15.45 2.67 33.57 3.26 40.11 1.49 18.42-4.45 98.34-9.5 124.78-6.24 33.87-19.02 80.22-27.04 98.64-2.08 5.05-3.86 10.7-3.86 12.18 0 1.78-2.38 7.43-5.05 13.07-2.68 5.35-6.54 13.37-8.92 17.83-2.08 4.16-3.86 9.8-3.86 12.48 0 2.67-1.19 4.75-2.38 4.75-1.18 0-5.94 7.73-10.39 17.23-4.76 9.21-11 21.1-13.97 25.85-3.27 5.05-6.83 10.99-8.02 13.37-0.89 2.38-5.64 9.21-10.4 15.15-4.45 5.95-8.32 12.18-8.32 13.97 0 1.78-0.89 3.56-2.37 4.16-1.19 0.59-9.51 10.4-18.42 21.69-33.87 43.67-82.3 87.94-147.37 134.29-15.45 11.29-103.39 54.37-118.54 58.23-3.27 0.89-15.15 4.75-26.74 8.91-21.69 7.43-49.02 13.97-89.13 21.1-30.6 5.64-93 7.42-176.78 4.75m-26.74-368.11c2.68-3.27 20.5-15.15 22.58-15.15 3.86 0 9.81-10.7 34.17-59.42 13.37-27.04 35.95-72.8 50.51-102.21 14.55-29.11 26.44-54.37 26.44-56.15 0-1.78 2.08-5.65 5.05-8.62 4.16-4.75 4.16-5.34 0-5.34-2.38 0-5.05 0.89-5.65 2.37-1.48 2.97-19.6 15.45-22.87 15.45-1.49 0-3.27 0.89-3.87 2.38-1.48 2.97-19.6 15.45-22.87 15.45-1.49 0-3.27 0.89-3.86 2.37-1.49 2.98-19.61 15.45-22.88 15.45-1.49 0-3.27 0.9-3.86 2.38-1.19 2.97-19.32 15.45-22.58 15.45-10.4 0-17.53 26.44-30.61 114.39-1.48 9.8-3.86 23.17-5.34 29.71-1.79 6.53-3.57 17.52-4.76 24.36-1.19 10.99-0.89 12.48 3.57 10.69 2.97-1.18 5.94-2.67 6.83-3.56zm6.54-309.29m11.71 4.16c1.78-1.19 2.65-2.58 0.84-7.75-0.87-2.49-0.08-3.33-1.44-14.6-0.26-2.13 0.18-43.01 0.18-113.42 0-99.53-0.6-112.31-4.16-104.58-6.24 13.07-12.18 27.33-19.91 47.53-3.86 9.81-8.02 19.02-9.21 20.8-1.19 1.49-2.37 4.46-2.37 6.83 0 3.87-9.21 26.45-14.86 36.84-1.78 2.98-2.97 6.84-2.97 8.92 0 2.08-1.78 7.13-3.86 11.29-2.08 4.16-6.24 14.26-9.21 22.28-2.97 8.32-7.13 19.01-9.21 23.77-2.08 5.05-5.95 14.85-8.92 22.28-2.67 7.43-6.83 17.53-8.91 22.28-2.08 5.05-5.94 14.86-8.91 22.29-2.68 7.42-6.99 17.46-8.92 22.28-12.16 30.34-10.79 31.55-24.37 66.12m142.92 5.18c2.37-2.37 5.05-4.45 6.24-4.45 2.37 0 20.5-12.78 21.69-15.45 0.59-1.49 2.37-2.38 3.86-2.38 3.27 0 21.39-12.48 22.88-15.45 0.59-1.48 2.97-2.37 5.05-2.37 2.08 0 4.45-0.9 5.05-2.08 1.48-3.27 19.61-15.75 22.87-15.75 1.49 0 3.27-0.89 3.87-2.08 1.18-3.27 19.31-15.75 22.87-15.75 1.49 0 3.27-2.08 4.46-4.45 1.19-3.57-0.89-4.46-8.62-4.46-5.64 0-10.39 1.19-10.39 2.38 0 1.48-2.98 4.16-6.54 6.24-3.86 1.78-10.7 5.94-15.75 9.21-4.75 3.26-11.88 7.42-15.45 9.21-3.86 2.08-6.83 4.75-6.83 6.24 0 1.18-1.49 2.37-2.97 2.37-3.57 0-21.69 12.18-23.18 15.75-0.59 1.19-2.37 2.08-3.86 2.08-3.27 0-21.39 12.48-22.88 15.74-0.59 1.19-2.37 2.08-3.56 2.08-2.38 0-22.58 12.78-26.44 16.64-0.6 0.6 4.16 1.19 10.99 1.19 6.83 0 13.96-2.08 16.64-4.46zm547.86-176.77c32.38-21.69 42.19-29.71 42.19-34.47 0-14.26-42.19-111.11-48.43-111.11-1.78 0-96.56 61.79-102.21 66.55-0.29 0.29 2.38 7.13 6.24 15.15 16.34 34.76 19.61 43.67 32.98 88.54l5.05 16.93 10.7-6.53c6.24-3.87 30.01-19.61 53.48-35.06zm-117.36-110.53c3.57-2.07 7.13-4.45 8.02-5.34 4.16-4.16 20.8-14.86 23.47-14.86 1.49 0 3.27-0.89 3.87-2.08 1.48-3.56 19.61-15.74 23.17-15.74 1.49 0 2.97-1.49 2.97-2.98 0-1.78 2.97-4.45 6.84-5.94 8.02-3.56 16.34-8.91 23.47-15.15 4.45-3.86 4.75-5.35 1.78-7.72-5.35-4.46-106.66 62.68-104.28 69.22 1.78 5.05 2.37 5.05 10.69 0.59zm-60.9-95.07c7.72-5.35 14.55-10.69 14.85-11.88 0.59-1.49 2.97-2.38 5.05-2.38 2.08 0 4.46-0.89 5.05-2.08 1.49-3.27 19.61-15.75 22.88-15.75 1.48 0 3.27-1.18 3.86-2.37 0.6-2.08 11.89-10.1 33.28-24.96 4.16-2.97-43.97-49.02-75.47-72.49-13.96-10.4-26.74-20.21-28.82-21.99-2.08-1.48-4.16-2.97-5.05-2.97-0.89 0-7.13-3.86-14.26-8.62-16.04-10.69-57.93-32.97-62.39-32.97-1.78 0-13.07 7.42-24.96 16.34-11.88 8.91-22.58 16.34-23.47 16.34-0.89 0-3.86 2.08-6.53 4.45-8.32 7.13-54.08 40.11-56.16 40.11-0.89 0-3.26 1.79-5.64 3.87-2.97 3.26-1.19 4.75 11.59 9.21 18.12 6.24 32.97 12.47 44.26 18.42 4.76 2.37 9.81 4.16 11.29 4.16 9.51 0 90.32 54.07 107.26 71.89 4.45 4.46 9.21 8.32 10.4 8.32 1.19 0.3 5.05 3.57 8.32 7.43 3.26 4.16 7.13 7.43 8.31 7.43 1.49 0 8.92-4.46 16.35-9.51z"/>
	</g>
	<g>
		<path class="s2" d="m791.94 1254.8c12.18-2.38 30.31-5.35 40.11-7.13 35.36-5.94 91.8-23.77 124.78-39.22 10.4-4.75 20.5-8.91 22.29-8.91 1.48 0 2.97-1.19 2.97-2.97 0-1.49 2.37-2.97 5.35-2.97 2.97 0 6.53-1.19 8.31-2.97 3.27-3.27 25.55-16.05 39.22-22.29 5.05-2.37 9.51-5.64 9.51-7.13 0-1.48 3.27-3.56 7.13-4.45 3.86-0.89 10.1-5.05 13.96-9.21 3.87-3.87 8.92-7.43 11-7.43 1.78 0 3.56-1.19 3.56-2.38 0-1.48 6.24-7.13 14.26-12.48 22.58-16.04 80.81-76.05 105.47-109.03 12.48-16.64 22.88-31.79 22.88-33.58 0-1.48 1.19-2.97 2.68-2.97 1.48 0 3.86-2.67 4.75-5.94 0.89-3.27 3.56-7.72 5.35-9.51 3.56-3.86 36.24-68.92 43.67-87.05 5.35-13.07 21.99-65.95 26.44-83.19 11.59-46.34 15.16-80.51 15.16-144.09 0-67.74-4.16-102.5-18.13-153.31-3.56-12.77-7.43-27.33-8.61-32.38-1.49-4.76-5.35-16.34-8.92-25.26-3.56-8.91-7.42-19.6-8.91-23.76-5.05-15.75-46.65-92.7-51.1-94.48-1.19-0.6-2.38-2.38-2.38-3.87 0-2.67-10.99-19.9-14.85-23.47-0.9-0.89-8.32-10.1-16.34-20.79-25.56-33.87-75.77-84.08-100.13-100.42-6.24-3.87-11.29-8.62-11.29-9.81 0-1.48-1.78-2.67-4.16-2.67-2.37 0-4.75-0.89-5.35-2.08-1.48-3.57-19.6-15.75-23.17-15.75-1.49 0-2.97-0.89-2.97-2.08 0-3.27-8.62-8.32-63.88-37.43-20.5-11-56.45-25.85-77.25-31.79-4.75-1.49-18.12-5.35-29.71-8.92-11.29-3.27-28.22-7.42-37.13-8.91-8.92-1.49-27.04-4.75-40.11-7.13l-23.77-4.46 41.59 1.49c64.48 2.08 114.39 11.59 179.75 34.17 27.93 9.5 109.04 49.02 123.3 60.01 1.78 1.19 17.83 13.07 35.65 26.44 41.3 30.6 98.94 87.65 119.14 118.25 4.46 6.54 9.21 11.88 10.4 11.88 1.48 0 2.67 2.08 2.67 4.46 0 2.38 1.19 4.46 2.68 4.46 1.48 0 4.16 4.16 6.24 8.91 2.08 5.05 4.75 8.91 5.94 8.91 1.19 0 2.97 2.38 4.16 5.35 0.89 2.67 4.45 9.21 7.72 13.96 2.97 5.06 7.73 13.08 10.1 17.83 2.38 5.05 6.84 13.67 10.11 19.31 2.97 5.65 8.02 15.75 10.99 22.29 2.67 6.53 7.13 15.44 9.21 19.9 2.38 4.16 4.16 9.21 4.16 11.29 0 2.08 1.78 7.73 3.86 12.78 14.86 34.76 30.3 104.28 33.28 150.63 1.18 15.45 2.67 33.57 3.26 40.11 1.49 18.42-4.45 98.34-9.5 124.78-6.24 33.87-19.02 80.22-27.04 98.64-2.08 5.05-3.86 10.7-3.86 12.18 0 1.78-2.38 7.43-5.05 13.07-2.68 5.35-6.54 13.37-8.92 17.83-2.08 4.16-3.86 9.8-3.86 12.48 0 2.67-1.19 4.75-2.38 4.75-1.18 0-5.94 7.73-10.39 17.23-4.76 9.21-11 21.1-13.97 25.85-3.27 5.05-6.83 10.99-8.02 13.37-0.89 2.38-5.64 9.21-10.4 15.15-4.45 5.95-8.32 12.18-8.32 13.97 0 1.78-0.89 3.56-2.37 4.16-1.19 0.59-9.51 10.4-18.42 21.69-33.87 43.67-82.3 87.94-147.37 134.29-15.45 11.29-103.39 54.37-118.54 58.23-3.27 0.89-15.15 4.75-26.74 8.91-44.86 15.45-101.61 25.26-157.47 27.04-44.26 1.48-44.56 1.48-22.28-2.38z"/>
		<path class="s2" d="m659.73 1131.21c-16.34-1.19-32.98-3.57-37.14-5.35-4.16-1.49-14.56-3.86-22.88-5.05-8.61-1.19-16.34-2.97-17.23-4.46-0.89-1.19-7.42-3.27-14.85-4.16-7.43-1.19-13.37-3.27-13.37-5.05 0-1.48-2.97-2.67-6.54-2.67-3.86-0.3-12.18-2.68-18.72-5.95-6.53-3.26-13.66-5.64-15.45-5.94-2.08 0-3.86-1.19-3.86-2.67 0-1.49-3.56-3.57-8.02-4.75-4.46-0.9-8.91-2.98-9.8-3.87-0.9-1.19-6.84-4.75-13.37-8.02-13.97-6.83-29.42-16.93-30.61-19.9-0.59-1.49-2.37-2.38-3.86-2.38-12.48 0-84.97-66.55-112.6-103.39-4.16-5.65-8.62-11.59-10.4-13.67-7.43-8.91-16.34-22.58-16.34-25.55 0-1.49-1.19-2.97-2.67-2.97-1.49 0-3.87-2.97-5.05-6.54-1.19-3.86-2.98-7.43-3.87-8.32-1.18-0.89-7.13-12.18-13.37-25.25-6.24-13.07-12.47-26.15-13.96-29.12-4.46-8.32-20.2-56.74-23.47-71.9-7.13-32.08-8.32-40.7-11.89-77.84-4.75-47.53-1.48-89.13 11.59-150.33 3.27-15.45 19.31-64.18 23.77-72.5 1.49-2.97 7.72-16.04 13.96-29.11 6.24-13.07 12.19-24.36 13.37-25.26 0.89-0.89 2.68-4.45 3.87-8.02 1.18-3.86 3.56-6.83 5.05-6.83 1.48 0 2.67-1.49 2.67-3.27 0-1.78 2.38-6.24 5.35-10.1 2.67-3.57 7.13-9.81 9.51-13.37 2.37-3.57 5.94-8.32 7.42-10.1 1.79-1.78 8.03-9.81 14.56-17.53 19.31-24.07 51.99-55.56 80.52-77.25 1.48-1.19 6.24-4.75 10.1-8.02 3.86-3.27 8.91-5.94 11.29-5.94 2.08 0 3.86-1.19 3.86-2.68 0-2.97 2.67-4.45 28.82-18.12 7.72-4.16 14.85-8.32 15.75-9.51 0.89-0.89 5.34-2.97 9.8-3.86 4.46-1.19 8.02-3.27 8.02-4.75 0-1.49 1.78-2.68 3.86-2.68 1.79-0.29 8.92-2.67 15.45-5.94 6.54-3.27 13.37-5.64 15.16-5.94 2.08 0 7.42-2.08 11.88-4.46 4.75-2.37 12.18-4.45 16.64-4.45 4.45 0 8.61-1.19 9.51-2.68 1.18-1.48 8.91-3.56 17.52-4.75 8.32-1.19 17.83-3.27 20.5-4.75 11-5.95 92.7-9.51 134.89-5.95 39.51 3.27 47.54 4.46 84.38 14.26 68.33 18.13 154.79 64.48 190.74 102.5 4.45 4.46 8.61 8.32 9.51 8.32 2.08 0 31.49 29.42 31.49 31.5 0 0.89 3.27 4.45 7.13 8.02 9.21 8.61 28.52 34.17 28.52 37.73 0 1.78 1.49 2.97 2.97 2.97 1.78 0 4.46 2.97 5.94 6.84 3.57 8.02 9.81 17.82 12.48 19.9 3.86 2.97 32.09 60.91 32.09 65.96 0 2.67 1.19 5.35 2.38 5.94 2.97 1.19 15.45 37.73 15.45 44.86 0 2.97 1.18 7.43 2.97 10.4 11.29 20.5 19.31 145.58 12.18 186.29-1.78 9.8-4.76 26.44-6.54 37.13-1.78 10.7-4.45 20.5-5.94 22.29-1.49 1.48-2.67 5.34-2.67 8.91 0 7.43-11.29 40.41-15.16 44.57-1.48 1.48-2.67 4.75-2.67 7.42-0.3 2.38-5.65 14.56-11.88 26.74-6.54 12.18-13.08 25.85-15.16 30.6-1.78 4.46-4.45 8.03-5.94 8.03-1.48 0-2.67 1.48-2.67 2.97 0 3.56-12.18 21.69-15.45 23.17-1.49 0.59-2.38 2.38-2.38 3.86 0 7.13-44.86 57.94-76.35 85.87-40.41 36.24-107.26 74.87-161.33 92.69-27.93 9.51-35.65 11.59-51.1 14.26-8.62 1.79-21.99 4.16-29.42 5.65-19.9 4.16-94.77 6.24-128.94 3.27zm-1.49-155.09c0-1.78 18.42-41 41.3-86.76 22.58-46.05 55.56-112.9 73.09-148.85 17.53-35.94 40.41-82.59 50.8-103.98l19.32-38.62-14.27-0.9c-7.72-0.59-31.49 0.3-52.88 2.08-50.8 4.16-58.23 2.97-68.93-12.47l-8.32-11.89-1.48-120.62c-0.89-66.26-2.08-118.25-2.38-115.28-0.3 2.67-1.78 5.05-3.56 5.05-1.49 0-2.98 2.08-2.98 4.76 0 2.67-1.78 8.91-4.15 13.96-2.08 5.35-6.84 16.93-10.4 25.85-3.57 8.91-7.73 19.01-9.21 22.28-1.19 3.27-5.35 13.37-8.92 22.28-3.26 8.92-7.42 19.02-8.91 22.29-1.19 3.26-5.64 13.96-9.21 23.76-3.86 9.81-8.02 19.02-9.21 20.5-1.19 1.79-2.38 5.05-2.38 7.43 0 2.68-1.78 8.02-3.86 12.18-2.08 4.16-6.24 14.26-9.21 22.29-2.97 8.31-7.13 19.01-9.21 23.76-2.08 5.05-5.94 14.86-8.91 22.29-2.68 7.42-6.84 17.53-8.92 22.28-2.08 5.05-8.02 19.61-13.37 32.68-5.05 13.07-11.29 28.23-13.66 33.57-2.38 5.35-4.16 10.4-4.16 11.29 0 0.6 33.57 0.3 74.57-0.59l74.87-2.08-2.08 8.62c-2.97 13.37-10.69 60.01-13.96 81.4-1.49 10.7-3.86 25.26-5.35 32.68-5.05 22.88-9.8 48.43-12.18 65.66-1.19 9.21-3.57 23.47-5.35 31.2-3.56 15.15-9.21 47.83-11.59 67.74-1.18 8.02-0.59 10.99 1.79 9.51 1.78-1.19 3.26-3.57 3.26-5.35z"/>
	</g>
	<g>
		<path id="Layer copy" class="s3" d="m545.34 1102.39c-37.13-14.15-58.82-24.04-64.76-29.71-2.13-2.03-5.35-3.87-6.84-3.87-3.27 0-46.05-29.11-65.06-44.26-13.97-11-56.45-53.19-66.85-65.96-3.27-3.86-9.81-12.48-14.56-19.02-5.05-6.53-9.8-12.47-10.7-13.37-1.18-0.89-2.97-3.56-4.15-5.94-2.08-4.45-3.57-6.83-16.64-28.22-17.53-28.23-39.22-79.63-48.73-115.87-13.07-50.21-14.56-64.77-14.56-126.27 0-46.05 1.19-66.55 5.06-84.68 9.21-43.67 13.36-57.63 27.33-94.18 7.13-18.42 22.28-49.61 30.9-63.28 13.07-21.39 14.56-23.77 16.64-28.23 1.18-2.37 2.97-5.05 4.15-5.94 0.9-0.89 5.65-6.83 10.7-13.37 4.75-6.53 11.29-15.15 14.56-19.01 7.72-9.51 54.67-56.45 64.47-64.47 13.07-11 64.47-45.76 67.44-45.76 1.49 0 4.76-1.78 6.84-3.56 4.16-3.87 17.23-10.7 35.05-18.13 5.65-2.37 15.16-6.24 20.8-8.61 24.07-10.4 61.8-20.8 99.53-27.63 41.89-7.73 171.43-2.38 187.18 7.72 1.78 1.19 8.91 2.97 16.34 4.16 7.43 1.19 14.85 3.27 16.34 4.46 1.78 1.19 10.4 4.45 19.31 7.13 16.93 5.64 37.73 13.96 50.51 20.8 34.76 18.42 73.68 42.78 84.97 53.47 2.08 1.79 6.83 5.95 10.99 9.21 6.24 5.05 6.54 6.54 2.68 9.21-3.87 2.68-3.27 3.57 3.26 4.76 5.35 0.89 7.13 0.3 5.95-1.78-2.38-4.16 6.83 2.97 17.23 13.07 27.63 27.03 76.95 91.21 76.95 100.42 0 1.78 0.89 3.56 2.37 4.16 2.68 1.19 24.37 44.86 24.37 49.32 0 2.08 1.48 3.56 2.97 3.56 1.78 0 2.97 2.08 2.97 4.76 0 2.67 1.78 8.91 4.16 13.96 3.86 8.91 8.02 22.28 18.12 59.12 6.24 23.48 13.37 81.41 13.37 109.34 0 27.33-7.13 85.56-13.37 108.44-9.21 34.47-14.26 51.1-18.12 60.02-2.38 5.05-4.16 11.29-4.16 13.96 0 2.67-1.19 4.75-2.97 4.75-1.49 0-2.97 1.49-2.97 3.57 0 4.46-21.69 48.13-24.37 49.32-1.48 0.59-2.37 2.37-2.37 4.16 0 3.56-20.2 34.46-33.57 51.4-19.61 24.36-58.83 64.47-74.87 76.65-1.49 1.19-6.24 5.05-10.4 8.32-12.48 10.4-54.67 37.43-61.5 39.51-3.87 1.19-6.84 3.27-6.84 4.76 0 1.48-3.86 3.26-8.91 4.45-4.75 1.19-8.91 3.27-8.91 4.76 0 1.48-1.49 2.67-3.27 2.67-1.49 0-8.62 2.38-15.45 5.65-19.02 8.31-23.18 9.8-37.73 14.26-60.02 18.42-84.38 22.28-153.01 23.17m-162.89-439.5c-2.97-0.89 27.94-0.9 40.41-1.2 12.78 0 36.86-0.18 61.57-0.8 25.64-0.63 46.01-2.95 48.09-1.04 1.16 1.07-4.41 26.89-10.95 62.25-2.67 14.85-6.54 38.32-8.91 52.59-2.08 14.26-4.76 27.03-5.65 28.52-0.89 1.48-2.97 12.48-4.75 24.66-1.78 12.18-5.05 32.68-7.43 45.75-2.08 13.07-5.94 35.06-8.32 49.02-2.37 13.97-5.35 27.63-6.53 30.6-4.16 9.81 0.29 13.97 15.44 13.97l14.27-0.3 13.96-28.82c24.07-50.21 67.44-139.34 100.72-207.67 17.82-35.95 32.38-67.15 32.38-68.93 0-1.78 1.19-3.27 2.68-3.27 1.48 0 3.56-3.86 4.75-8.91 1.19-4.76 2.97-8.92 4.46-8.92 1.48 0 3.26-3.86 4.45-8.91 1.19-4.75 3.27-8.91 4.76-8.91 1.48 0 2.67-1.49 2.67-3.27 0-2.08 4.75-13.37 10.4-25.25 5.64-11.89 10.4-22.58 10.4-23.47 0-1.19-31.2-1.79-69.52-1.19-38.33 0.59-70.42 0.59-71.01-0.3-0.89-0.89-2.08-46.94-2.68-102.5-0.59-55.56-1.18-115.28-1.78-132.81l-0.89-32.08h-14.86c-12.47 0-15.15 0.89-17.23 6.83-1.48 3.56-5.05 12.48-7.72 19.91-2.68 7.42-6.24 15.74-7.73 18.42-1.48 2.97-5.34 13.37-8.91 23.47-3.57 10.1-8.32 21.69-10.4 26.14-2.38 4.16-4.16 9.51-4.16 11.59 0 2.08-1.19 5.94-2.97 8.91-5.05 9.21-14.85 32.98-14.85 36.25 0 1.48-1.19 5.35-2.98 8.32-5.64 10.4-14.85 32.98-14.85 36.84 0 2.38-1.19 5.35-2.38 6.83-1.19 1.78-5.35 11-9.21 20.8-3.86 9.8-8.61 21.99-10.99 27.33-2.38 5.05-4.16 11-4.16 13.37 0 2.08-2.08 6.54-4.46 9.51-2.37 3.27-4.45 8.91-4.45 12.78 0 3.86-1.19 6.83-2.68 6.83-1.48 0-3.86 4.46-5.05 9.51"/>
	</g>
	<g>
		<path class="s4" d="m659.43 1128.24c-3.27-1.19-16.34-3.27-28.82-4.46-12.77-1.19-23.76-3.27-24.36-4.46-0.89-1.48-8.91-3.56-17.83-4.45-8.91-1.19-16.34-3.27-16.34-4.76 0-1.19-5.94-3.27-13.37-4.45-7.42-0.9-13.37-2.98-13.37-4.16 0-1.19-3.56-3.27-8.02-4.16-10.1-2.38-63.28-28.53-68.63-33.58-2.08-2.08-5.94-3.86-8.32-3.86-2.37 0-4.16-1.19-4.16-2.97 0-1.49-1.48-2.97-3.26-2.97-1.79 0-6.24-2.38-10.11-5.05-3.56-2.97-9.8-7.43-13.37-9.81-3.56-2.37-8.31-5.94-10.1-7.42-1.78-1.79-9.8-8.32-17.82-14.86-18.72-15.15-38.63-35.06-53.78-53.77-6.54-8.03-13.07-16.05-14.85-17.83-1.49-1.78-5.06-6.54-7.43-10.1-2.38-3.57-6.84-9.81-9.51-13.37-2.97-3.86-5.35-8.32-5.35-10.1 0-1.79-0.89-3.27-2.08-3.27-4.16 0-36.24-60.61-41-77.25-1.19-4.16-3.27-8.61-4.45-10.4-1.19-1.48-3.27-7.72-4.46-13.37-1.19-5.64-3.27-12.18-4.75-14.85-2.98-5.94-8.03-25.55-13.67-54.97-3.57-17.23-4.75-41.29-4.75-87.64 0-46.35 1.18-70.42 4.75-87.65 5.64-29.41 10.69-49.02 13.67-54.96 1.48-2.68 3.56-9.21 4.75-14.86 1.19-5.64 3.27-11.58 4.46-13.37 1.18-1.48 3.26-6.24 4.45-10.4 2.38-7.13 19.31-43.08 26.15-54.96 18.42-31.49 23.77-39.81 30.01-47.54 4.15-4.75 8.61-10.1 9.8-11.88 25.55-32.38 44.57-52.29 68.04-71.3 8.02-6.54 16.04-13.08 17.82-14.86 1.79-1.49 6.54-5.05 10.1-7.43 3.57-2.37 9.81-6.83 13.37-9.8 3.87-2.68 8.32-5.05 10.11-5.05 1.78 0 3.26-1.19 3.26-2.97 0-1.49 1.79-2.97 4.16-2.97 2.38 0 6.24-1.79 8.32-3.87 5.35-5.05 58.53-31.19 68.63-33.57 4.46-0.89 8.02-2.97 8.02-4.16 0-1.19 5.95-3.27 13.37-4.16 7.43-1.19 13.37-3.27 13.37-4.46 0-1.48 6.84-3.26 15.16-4.45 8.32-1.19 17.23-3.27 19.9-4.76 8.02-4.16 52.89-9.8 86.76-10.39 17.23-0.6 27.92-0.3 23.76 0.29-4.15 0.6-16.63 2.68-28.22 4.16-37.14 5.65-81.41 19.91-123.3 39.81-22.87 10.7-54.67 29.12-55.85 32.09-0.6 1.49-2.38 2.38-4.16 2.38-5.95 0-40.41 28.82-71.01 59.12-45.16 44.86-72.49 82.6-96.56 134-4.46 8.91-9.51 19.6-11.29 23.76-5.94 11.89-21.69 65.07-26.74 89.14-5.05 25.55-11.29 95.37-9.51 108.44 0.6 5.05 2.08 20.2 2.97 34.16 1.19 13.97 4.16 35.36 6.54 47.54 5.05 24.66 20.8 77.55 26.74 89.13 2.08 4.16 7.13 14.86 11.29 23.77 12.18 26.74 28.23 53.48 47.24 78.73 19.61 26.15 78.73 87.35 84.67 87.65 1.79 0 3.57 1.19 3.57 2.38 0 2.97 28.52 24.36 32.38 24.36 1.49 0 3.27 1.19 3.87 2.38 2.08 4.75 45.16 27.92 76.65 41.29 38.62 16.05 73.98 26.15 106.96 30.31 13.96 1.78 28.52 3.86 32.68 4.45 4.16 0.6-8.02 1.19-26.74 1.19-18.72 0-36.84-0.89-40.41-2.37z"/>
		<path class="s4" d="m680.53 991.57c-0.89-1.49-0.6-2.97 1.19-2.97 1.48 0 3.56-3.87 4.75-8.92 1.19-4.75 2.97-8.91 4.46-8.91 1.48 0 3.26-3.86 4.45-8.91 1.19-4.76 3.27-8.92 4.76-8.92 1.48 0 2.67-1.78 2.67-3.56 0-2.08 10.7-24.96 23.77-51.1 13.07-25.85 23.77-49.03 23.77-51.1 0-2.38 1.48-4.16 2.97-4.16 1.78 0 2.97-1.49 2.97-3.27 0-2.68 16.34-36.84 74.57-155.68 9.51-19.61 17.53-37.44 17.53-39.52 0-1.78 1.19-3.56 2.67-3.56 1.49 0 3.57-3.87 4.76-8.92 1.19-4.75 2.97-8.91 4.45-8.91 1.49 0 3.27-3.86 4.46-8.91 1.19-4.76 3.27-8.92 4.75-8.92 1.49 0 2.68-2.08 2.68-4.45 0-3.27 3.56-4.46 13.37-4.46 7.43 0 13.37 0.59 13.37 1.19 0 0.3-5.94 12.77-13.37 27.33-7.43 14.56-13.37 28.23-13.37 30.31 0 1.78-1.19 3.56-2.97 3.56-1.49 0-2.97 1.78-2.97 3.86 0 1.79-11.89 27.63-26.45 57.05-14.55 29.41-36.84 74.87-49.31 101.01-12.78 26.15-37.14 76.06-54.08 110.82l-31.19 62.99h-11.29c-6.54 0-12.48-1.19-13.37-2.97z"/>
		<path class="s4" d="m729.55 475.2c0-66.55-0.6-124.49-1.49-128.35-2.67-13.37 0.89-17.82 13.67-17.82h11.59v17.23c0 50.21 3.27 232.33 4.45 240.65l1.19 9.51h-14.56-14.55z"/>
	</g>
</svg>